<?xml version="1.0" encoding="UTF-8" standalone="no"?>
<svg
   xmlns:dc="http://purl.org/dc/elements/1.1/"
   xmlns:cc="http://creativecommons.org/ns#"
   xmlns:rdf="http://www.w3.org/1999/02/22-rdf-syntax-ns#"
   xmlns:svg="http://www.w3.org/2000/svg"
   xmlns="http://www.w3.org/2000/svg"
   xmlns:sodipodi="http://sodipodi.sourceforge.net/DTD/sodipodi-0.dtd"
   xmlns:inkscape="http://www.inkscape.org/namespaces/inkscape"
   width="181.98666mm"
   height="33.866669mm"
   viewBox="0 0 181.98666 33.866669"
   version="1.1"
   id="svg8"
   inkscape:version="1.0.1 (3bc2e813f5, 2020-09-07)"
   sodipodi:docname="buildmystock.svg">
  <defs
     id="defs2" />
  <sodipodi:namedview
     id="base"
     pagecolor="#ffffff"
     bordercolor="#666666"
     borderopacity="1.0"
     inkscape:pageopacity="0.0"
     inkscape:pageshadow="2"
     inkscape:zoom="1"
     inkscape:cx="319.91159"
     inkscape:cy="64.000006"
     inkscape:document-units="mm"
     inkscape:current-layer="layer1"
     inkscape:document-rotation="0"
     showgrid="false"
     fit-margin-top="0"
     fit-margin-left="0"
     fit-margin-right="0"
     fit-margin-bottom="0"
     inkscape:snap-global="false"
     inkscape:window-width="1624"
     inkscape:window-height="1020"
     inkscape:window-x="114"
     inkscape:window-y="0"
     inkscape:window-maximized="0" />
  <metadata
     id="metadata5">
    <rdf:RDF>
      <cc:Work
         rdf:about="">
        <dc:format>image/svg+xml</dc:format>
        <dc:type
           rdf:resource="http://purl.org/dc/dcmitype/StillImage" />
        <dc:title></dc:title>
      </cc:Work>
    </rdf:RDF>
  </metadata>
  <g
     inkscape:label="Layer 1"
     inkscape:groupmode="layer"
     id="layer1"
     transform="translate(-10.262049,-177.28972)">
    <path
       style="fill:#000000;stroke-width:0.264583"
       d="m 10.262052,207.98139 v -3.175 h 3.307292 3.307291 v 3.175 3.175 h -3.307291 -3.307292 z m 8.202083,0 v -3.175 h 3.307292 3.307292 v 3.175 3.175 h -3.307292 -3.307292 z m 103.886675,0.51246 c -0.92097,-0.26473 -1.75751,-0.98546 -1.75751,-1.5142 0,-0.2148 0.48375,-1.49359 1.075,-2.84173 l 1.07501,-2.45118 -2.09785,-3.5334 c -2.93354,-4.94097 -3.03357,-5.15533 -2.69818,-5.78202 0.38758,-0.72419 1.78425,-1.3977 2.51704,-1.21378 0.43118,0.10822 1.09556,0.99788 2.28661,3.06196 0.92336,1.60018 1.77445,2.87857 1.89132,2.84087 0.11687,-0.0377 0.76319,-1.29907 1.43627,-2.80303 1.42875,-3.19248 1.85926,-3.54202 3.42231,-2.77864 0.80678,0.39403 1.02674,0.65782 1.07491,1.28915 0.0769,1.00759 -6.24047,15.17765 -6.96899,15.63173 -0.32065,0.19986 -0.771,0.23366 -1.25594,0.0943 z m -95.684591,-3.42288 v -3.175 h 3.307292 3.307291 v 3.175 3.175 h -3.307291 -3.307292 z m 109.018001,-1.88231 c -1.90177,-0.5785 -3.68855,-2.261 -3.70432,-3.48813 -0.0112,-0.87132 1.10632,-2.03789 1.9522,-2.03789 0.30884,0 1.13786,0.47625 1.84226,1.05833 1.40771,1.16327 2.51849,1.3658 3.54549,0.64646 0.68274,-0.47821 0.76971,-1.48532 0.17925,-2.07578 -0.22483,-0.22483 -0.90943,-0.53517 -1.52135,-0.68965 -1.58732,-0.40074 -3.39358,-1.07672 -4.10438,-1.53605 -0.93964,-0.60723 -1.6384,-2.22176 -1.6384,-3.78567 0,-3.72086 3.63692,-5.85047 7.85309,-4.5984 2.59878,0.77175 3.33334,1.98231 2.18306,3.59773 -0.6634,0.93165 -1.81571,1.02942 -2.8202,0.23928 -1.2832,-1.00936 -3.2472,-0.54324 -3.2472,0.77066 0,1.0028 0.36509,1.25527 2.53188,1.75087 3.85019,0.88064 5.14104,2.12285 5.14104,4.94736 0,2.07629 -0.82309,3.505 -2.59643,4.50687 -1.56073,0.88176 -3.98884,1.18289 -5.59599,0.69401 z m 24.14019,0.0524 c -2.77516,-0.70655 -4.63684,-3.10995 -4.63684,-5.98608 0,-2.03328 0.55716,-3.24967 2.11766,-4.62327 3.0875,-2.71773 7.72283,-1.80436 9.60932,1.89346 0.65092,1.27592 0.69514,4.11957 0.0829,5.33339 -1.32211,2.62131 -4.42178,4.08298 -7.17306,3.3825 z m 3.0081,-4.35354 c 1.53979,-1.32447 0.55741,-3.87074 -1.49337,-3.87074 -1.14526,0 -2.02379,0.79237 -2.27584,2.05264 -0.13983,0.69915 -0.0352,0.96871 0.63703,1.64092 0.99642,0.99642 2.10673,1.05923 3.13218,0.17718 z m 10.99079,4.30659 c -1.99955,-0.38206 -3.65531,-1.68963 -4.40174,-3.47609 -0.55639,-1.33161 -0.51424,-3.78364 0.0878,-5.10906 1.55541,-3.42423 6.53727,-4.50637 9.3584,-2.03281 0.58128,0.50966 0.59307,1.46702 0.0287,2.32839 -0.68132,1.03981 -1.2908,1.2535 -2.28071,0.79963 -2.10748,-0.96627 -3.63495,-0.31007 -3.63495,1.56156 0,1.77275 1.48714,2.44151 3.53059,1.58771 0.92973,-0.38847 0.96871,-0.3797 1.88439,0.42428 1.24161,1.09015 1.26642,2.07454 0.0751,2.98103 -1.22193,0.9298 -2.90448,1.26843 -4.64761,0.93536 z m 15.60428,-0.007 c -0.34036,-0.12842 -1.41027,-0.94779 -2.37757,-1.82082 -0.96731,-0.87303 -1.84969,-1.58732 -1.96085,-1.58732 -0.11116,0 -0.20211,0.65065 -0.20211,1.4459 0,1.15872 -0.10164,1.50029 -0.51177,1.71979 -0.65709,0.35166 -2.02354,0.35166 -2.68062,0 -0.48899,-0.2617 -0.51177,-0.63714 -0.51177,-8.43427 0,-9.13927 -0.051,-8.89982 1.88438,-8.84907 1.77125,0.0464 1.81978,0.17683 1.81978,4.88963 0,2.31051 0.0949,4.20093 0.21089,4.20093 0.11599,0 0.68153,-0.48606 1.25677,-1.08014 2.03176,-2.09831 3.33466,-2.28763 4.3572,-0.63314 0.53715,0.86914 0.54807,0.97742 0.15851,1.57196 -0.2301,0.35119 -0.90083,1.02624 -1.49049,1.50011 -0.58967,0.47387 -1.03812,0.9997 -0.99657,1.16851 0.0416,0.16882 0.87924,0.98638 1.8615,1.81681 0.98227,0.83043 1.7855,1.65124 1.78495,1.82402 -0.002,0.50576 -0.98712,1.97821 -1.5062,2.25039 -0.28449,0.14917 -0.72708,0.15591 -1.09603,0.0167 z m -170.963445,-3.284 v -3.31543 l 3.241146,0.0743 3.241146,0.0743 0.07429,3.24114 0.07429,3.24115 h -3.315436 -3.315436 z m 68.542385,3.02404 c -1.45751,-0.28216 -2.855537,-1.37768 -3.709316,-2.90667 -0.515149,-0.92256 -0.653428,-1.55507 -0.661458,-3.0256 -0.01278,-2.34221 0.811982,-4.11483 2.45033,-5.2663 2.040453,-1.43409 5.841902,-1.15263 7.165898,0.53056 0.27717,0.35236 0.576107,0.64066 0.664303,0.64066 0.0882,0 0.160359,-1.60734 0.160359,-3.57188 v -3.57187 h 1.058333 1.058333 v 8.59896 8.59896 h -1.058333 -1.058333 v -1.08912 -1.08912 l -1.042549,0.94187 c -0.636481,0.57503 -1.435142,1.00823 -2.050521,1.11223 -0.554384,0.0937 -1.186566,0.20511 -1.404847,0.2476 -0.218281,0.0425 -0.925769,-0.0251 -1.572199,-0.15028 z m 3.507822,-1.85833 c 2.364158,-1.21762 3.197055,-3.89416 1.966981,-6.32097 -0.738656,-1.45729 -1.977242,-2.2144 -3.622627,-2.2144 -3.656336,0 -5.508101,4.37123 -3.131625,7.39243 1.005317,1.27805 3.410159,1.8522 4.787271,1.14294 z m 8.269734,1.73396 c -0.358068,-0.35807 -0.415774,-1.43836 -0.415774,-7.78357 0,-4.05229 0.07103,-7.55289 0.157837,-7.77912 0.185166,-0.48253 1.675991,-0.81864 2.601151,-0.58644 0.4243,0.10649 1.52802,1.31888 3.21801,3.53484 1.41472,1.85502 2.65912,3.47229 2.76533,3.59393 0.10621,0.12163 1.34402,-1.27496 2.75068,-3.10354 1.40666,-1.82858 2.81596,-3.50568 3.13178,-3.72689 0.81358,-0.56985 2.20306,-0.50768 2.83771,0.12698 0.5033,0.5033 0.52917,0.88194 0.52917,7.74633 0,8.52586 -0.003,8.53657 -2.18102,8.32728 -0.72323,-0.0695 -1.41952,-0.29144 -1.5473,-0.49321 -0.12778,-0.20177 -0.23792,-2.33139 -0.24474,-4.73249 l -0.0124,-4.36562 -0.58695,0.68189 c -0.32283,0.37504 -1.15453,1.48009 -1.84823,2.45566 -2.17545,3.0594 -3.15061,2.95472 -5.73655,-0.61581 -0.93838,-1.29568 -1.80159,-2.29679 -1.91823,-2.22471 -0.11664,0.0721 -0.21207,2.08439 -0.21207,4.47177 0,4.02074 -0.0377,4.36089 -0.51178,4.6146 -0.76459,0.4092 -2.304209,0.33052 -2.776614,-0.14188 z m 49.987354,-0.10881 c -1.56996,-0.77755 -1.82112,-1.34486 -1.97845,-4.46881 l -0.13822,-2.74443 -0.92604,-0.29828 c -0.88876,-0.28627 -0.92929,-0.35506 -1.00676,-1.70882 -0.0907,-1.5853 0.18993,-2.0922 1.22456,-2.21177 0.67789,-0.0783 0.71391,-0.16123 0.84053,-1.93394 l 0.13229,-1.85208 1.01808,-0.25142 c 0.77747,-0.19201 1.18392,-0.15861 1.71979,0.1413 0.63543,0.35563 0.70911,0.5606 0.77995,2.16966 l 0.0782,1.77692 h 1.29193 c 1.6222,0 2.12483,0.45941 2.11942,1.93713 -0.006,1.60395 -0.27844,1.88123 -1.90115,1.93407 l -1.40209,0.0456 -0.081,1.53628 c -0.11659,2.21136 0.0698,2.74895 0.9532,2.74895 1.21026,0 1.90592,0.67458 1.90592,1.84819 0,0.57852 -0.18098,1.20541 -0.41578,1.44021 -0.60074,0.60074 -2.90172,0.54134 -4.21443,-0.10881 z M 39.101636,194.86266 v -8.09165 l 4.564062,0.0898 c 4.128693,0.0812 4.670809,0.14663 5.683089,0.68591 1.311764,0.69882 1.923682,1.72843 1.923682,3.23678 0,1.46925 -0.607039,2.53741 -1.785662,3.14208 l -0.982314,0.50395 0.933321,0.38997 c 2.815952,1.17658 3.442869,4.78363 1.17716,6.77295 -1.316892,1.15624 -2.390746,1.35876 -7.213859,1.36041 l -4.299479,0.001 z m 8.998198,5.81087 c 1.253009,-0.50135 1.585135,-1.00803 1.585135,-2.41821 0,-1.96096 -1.618485,-2.70543 -5.886979,-2.70787 l -2.579688,-0.001 v 2.77813 2.77812 h 2.905062 c 2.060876,0 3.216404,-0.12457 3.97647,-0.42869 z m -0.08287,-7.49718 c 1.065374,-0.6496 1.381789,-1.94933 0.764952,-3.14217 -0.547208,-1.05818 -1.663094,-1.364 -4.983929,-1.3659 l -2.579688,-0.001 v 2.51354 2.51354 l 2.976563,-9.8e-4 c 2.483551,-8.2e-4 3.116611,-0.0864 3.822102,-0.51655 z m 9.063622,9.18174 c -1.734645,-1.16897 -1.953231,-1.91123 -2.064433,-7.01017 l -0.09954,-4.56445 h 1.060071 1.060075 l 0.104706,4.0349 c 0.117134,4.51368 0.391988,5.43443 1.795825,6.01592 1.050671,0.4352 3.044791,0.20803 3.760364,-0.42838 1.201309,-1.06841 1.527374,-2.36892 1.533586,-6.11671 l 0.0058,-3.50573 h 1.058334 1.058333 v 6.08542 6.08542 H 65.295374 64.23704 l -0.0029,-1.25677 -0.0029,-1.25678 -0.702717,0.89187 c -0.906891,1.15099 -2.069695,1.62168 -4.006284,1.62168 -1.177094,0 -1.772684,-0.14544 -2.441588,-0.59622 z m 13.506463,-5.4892 v -6.08542 h 1.058334 1.058333 v 6.08542 6.08542 h -1.058333 -1.058334 z m 6.614584,-2.51354 v -8.59896 h 1.058333 1.058333 v 8.59896 8.59896 h -1.058333 -1.058333 z m -66.939584,2.91041 v -3.30729 h 3.307295 3.307291 v 3.30729 3.3073 h -3.307291 -3.307292 z m 16.404167,0 v -3.30729 h 3.307292 3.307291 v 3.30729 3.3073 h -3.307291 -3.307292 z m -8.202084,-5.29166 v -3.30729 h 3.307292 3.307292 v 3.30729 3.30729 h -3.307289 -3.307292 z m 8.202087,-5.28352 v -3.31544 h 3.315435 3.315436 l -0.07429,3.24115 -0.07429,3.24114 -3.241146,0.0743 -3.241146,0.0743 z m 43.902921,1.14901 c -0.461645,-0.86259 0.07333,-1.81862 1.017656,-1.81862 0.886653,0 1.381506,0.42648 1.381506,1.19063 0,0.76033 -0.493866,1.19062 -1.366525,1.19062 -0.475239,0 -0.837017,-0.19711 -1.032637,-0.56263 z m -60.307088,-7.24258 v -3.30729 h 3.307292 3.307291 v 3.30729 3.3073 h -3.307291 -3.307292 z"
       id="path847" />
    <path
       id="path849"
       style="fill:#1187ea;stroke-width:0.264583"
       d="m 114.54716,186.18531 c -0.32636,-0.0327 -0.66569,0.009 -0.99581,0.12506 -0.25563,0.0899 -0.42954,0.23257 -0.66145,0.42995 -0.23192,0.19737 -0.49625,0.45319 -0.79737,0.76687 -0.60224,0.62737 -1.3477,1.48574 -2.19677,2.53215 -0.73036,0.90012 -1.43946,1.71882 -1.98489,2.30477 -0.27271,0.29297 -0.50572,0.52848 -0.67076,0.67954 -0.003,0.003 -0.004,0.003 -0.007,0.006 -0.14638,-0.13555 -0.34558,-0.33907 -0.58188,-0.59789 -0.48666,-0.53307 -1.11531,-1.28062 -1.75751,-2.10168 -1.47953,-1.89163 -2.33556,-2.94613 -3.0856,-3.54759 -0.75005,-0.60147 -1.51567,-0.66276 -2.248961,-0.48163 l -0.99632,0.24598 a 0.52921907,0.52921907 0 0 0 -0.402561,0.50902 l -0.07028,7.58403 c -0.0307,3.31846 -0.03596,5.22626 0.01447,6.37946 0.02521,0.57659 0.06252,0.96413 0.129707,1.26969 0.06718,0.30555 0.187523,0.56011 0.360701,0.73328 0.218011,0.21801 0.471797,0.33146 0.751377,0.42375 0.279577,0.0923 0.582075,0.14867 0.885737,0.14728 0.40414,-0.002 0.74777,0.008 1.10898,-0.12351 0.3612,-0.13139 0.66965,-0.46965 0.81235,-0.87488 0.28539,-0.81046 0.27799,-2.00248 0.32401,-4.40128 0.0301,-1.5689 0.0738,-2.65857 0.13488,-3.33106 0.005,-0.0549 0.0102,-0.0617 0.0155,-0.11111 0.0138,0.0147 0.0204,0.0194 0.0346,0.0346 0.34034,0.36597 0.78007,0.88369 1.22421,1.45211 1.01669,1.30117 1.68264,2.08669 2.30632,2.5461 0.31184,0.22971 0.63087,0.3808 0.96738,0.42013 0.33652,0.0393 0.65938,-0.0416 0.94465,-0.17157 0.21783,-0.0993 0.3495,-0.22404 0.53536,-0.3948 0.18587,-0.17077 0.39572,-0.38472 0.62374,-0.63304 0.45603,-0.49664 0.98242,-1.12882 1.48105,-1.78956 0.45333,-0.60072 0.87927,-1.12913 1.22524,-1.53737 0.004,0.0585 0.009,0.0819 0.0124,0.14469 0.0433,0.7597 0.0712,1.82796 0.0724,3.01998 0.001,1.18996 0.0277,2.31128 0.0703,3.16776 0.0213,0.42824 0.0463,0.78938 0.0755,1.06712 0.0145,0.13887 0.0297,0.25607 0.0486,0.35915 0.0189,0.10308 -5.3e-4,0.15848 0.11938,0.34778 0.23313,0.36793 0.48325,0.40552 0.786,0.51057 0.30274,0.10504 0.65808,0.18529 1.02681,0.22685 0.46666,0.0526 0.88246,0.11481 1.32343,-0.0615 0.44096,-0.1763 0.73904,-0.61988 0.8878,-1.17667 0.29752,-1.1136 0.31516,-3.00305 0.37311,-6.74843 0.0271,-1.75203 0.0249,-3.44814 -0.001,-4.7749 -0.0129,-0.66338 -0.032,-1.23386 -0.0563,-1.6769 -0.0243,-0.44304 -0.0366,-0.71389 -0.1018,-0.9648 -0.27724,-1.06641 -1.08139,-1.83504 -2.05982,-1.93322 z" />
    <path
       id="path851"
       style="fill:#1187ea;stroke-width:0.264583"
       d="m 120.36851,190.84342 c -0.14492,-0.0174 -0.28934,-0.0117 -0.43202,0.004 -0.4282,0.046 -0.86363,0.20152 -1.25935,0.42271 -0.39572,0.2212 -0.75688,0.49698 -0.97462,0.90382 -0.0928,0.17347 -0.20008,0.44607 -0.1788,0.74621 0.0213,0.30014 0.12834,0.59324 0.32091,1.00304 0.38515,0.81959 1.15594,2.13908 2.64118,4.66897 l 1.81953,3.09955 -1.02113,2.47323 -1.12189,2.71663 a 0.52921844,0.52921844 0 0 0 0.14366,0.60307 l 0.75861,0.65267 c 0.34834,0.29963 0.67682,0.52766 1.03973,0.65526 0.36291,0.1276 0.77713,0.12859 1.13481,-0.0269 0.71537,-0.31092 1.18184,-1.03235 1.77044,-2.14302 1.34152,-2.5314 4.50441,-9.62034 5.29012,-11.87162 0.35402,-1.0144 0.55454,-1.69112 0.42271,-2.33836 -0.0659,-0.32362 -0.24432,-0.61975 -0.48214,-0.83303 -0.23783,-0.21327 -0.52013,-0.35996 -0.8475,-0.49816 -0.32056,-0.13532 -0.63407,-0.24402 -0.99167,-0.22272 -0.35759,0.0213 -0.70616,0.20393 -0.98443,0.47852 -0.55656,0.54918 -1.02963,1.46354 -1.85312,3.10317 -0.35168,0.70022 -0.69808,1.32169 -0.96273,1.74357 -0.03,0.0478 -0.0435,0.0608 -0.0713,0.10335 -0.0763,-0.10954 -0.13959,-0.19634 -0.23409,-0.33745 -0.33411,-0.49892 -0.76758,-1.17375 -1.21491,-1.89756 -0.45643,-0.73851 -0.9202,-1.43512 -1.30638,-1.97146 -0.1931,-0.26816 -0.36601,-0.49613 -0.5147,-0.67437 -0.14869,-0.17824 -0.19689,-0.28877 -0.45682,-0.42788 -0.144,-0.0771 -0.28916,-0.11746 -0.43408,-0.13488 z" />
    <path
       id="path853"
       style="fill:#1187ea;stroke-width:0.264583"
       d="m 138.34002,185.99101 c -3.45512,-0.30184 -6.44508,1.96327 -6.44508,5.2989 0,1.47987 0.54076,2.97067 1.49345,3.83284 0.15452,0.13984 0.3,0.21341 0.50642,0.32039 0.20642,0.10699 0.45903,0.22505 0.74673,0.35037 0.5754,0.25064 1.29028,0.52978 2.01848,0.7829 0.69994,0.24329 1.37535,0.51506 1.88671,0.75086 0.25567,0.11789 0.47117,0.22758 0.62063,0.31419 0.14946,0.0866 0.24741,0.20246 0.17312,0.1018 0.18605,0.2521 0.2265,0.43137 0.20464,0.60048 -0.0219,0.16911 -0.12291,0.37513 -0.38809,0.62218 -0.35819,0.33371 -0.66402,0.43699 -1.15032,0.37104 -0.48631,-0.0659 -1.15716,-0.36106 -2.00866,-0.93948 -0.43864,-0.29796 -0.86915,-0.56804 -1.2206,-0.76894 -0.17573,-0.10045 -0.33078,-0.18356 -0.46561,-0.24701 -0.0674,-0.0317 -0.12891,-0.0584 -0.1943,-0.0816 -0.0654,-0.0232 -0.11767,-0.052 -0.26717,-0.0522 -0.36777,-7.9e-4 -0.56712,0.16011 -0.78858,0.32608 -0.22146,0.16598 -0.43686,0.37378 -0.63717,0.60048 -0.20031,0.22671 -0.38341,0.47006 -0.52658,0.71469 -0.14318,0.24462 -0.26769,0.47088 -0.26769,0.80047 0,0.84403 0.55906,1.59694 1.29553,2.28358 0.73648,0.68663 1.69786,1.28735 2.7125,1.61488 0.70437,0.22738 1.65337,0.21559 2.651,0.10232 0.99762,-0.11326 2.00632,-0.33975 2.74453,-0.69711 2.32409,-1.12507 3.54467,-3.47218 3.15743,-6.05441 -0.14511,-0.96765 -0.55834,-1.79716 -1.26814,-2.43603 -0.70979,-0.63887 -1.68345,-1.09308 -2.96157,-1.46192 -1.59525,-0.46037 -2.50804,-0.77055 -2.92902,-1.01079 -0.2105,-0.12013 -0.2835,-0.20461 -0.31885,-0.26666 -0.0353,-0.062 -0.0563,-0.13904 -0.0563,-0.31781 0,-0.57315 0.22749,-0.82509 0.68213,-0.96273 0.45463,-0.13764 1.18383,-0.0627 1.97404,0.38137 0.70111,0.39405 1.38201,0.57759 2.02158,0.4439 0.63957,-0.13368 1.15725,-0.60071 1.48983,-1.24385 0.21229,-0.41053 0.34523,-0.8113 0.34261,-1.22318 -0.003,-0.41188 -0.16432,-0.81744 -0.44338,-1.13636 -0.55812,-0.63784 -1.48812,-1.0244 -2.87941,-1.42886 -0.50704,-0.1474 -1.01093,-0.24159 -1.50482,-0.28473 z" />
    <path
       style="fill:#1187ea"
       d=""
       id="path855"
       transform="matrix(0.26458333,0,0,0.26458333,-6.4066978,114.05431)" />
    <path
       id="path857"
       style="fill:#1187ea;stroke-width:0.264583"
       d="m 148.52596,187.02402 c -0.20502,-0.003 -0.42122,0.0181 -0.64957,0.061 -0.2317,0.0435 -0.41378,0.078 -0.57516,0.13487 -0.16138,0.0569 -0.31259,0.14877 -0.41186,0.29198 -0.19854,0.28641 -0.18456,0.62787 -0.19741,1.22576 -0.0184,0.85405 -0.0989,1.46903 -0.23099,1.85208 -0.13209,0.38306 -0.27245,0.50704 -0.46974,0.54364 -0.49213,0.0913 -0.88094,0.2815 -1.10587,0.65112 -0.22493,0.36962 -0.28371,0.8551 -0.28371,1.53944 0,0.61853 -0.004,0.98007 0.1602,1.28881 0.1638,0.30875 0.4623,0.44699 0.8878,0.62477 0.44678,0.18668 0.66207,0.37652 0.82682,0.86868 0.16476,0.49216 0.23622,1.30106 0.25374,2.59933 0.0148,1.09811 0.13406,1.90757 0.44545,2.54919 0.31139,0.64163 0.81902,1.09147 1.526,1.44798 0.79009,0.39842 1.63674,0.60542 2.39624,0.61805 0.7595,0.0126 1.44479,-0.16322 1.88154,-0.59996 0.16353,-0.16354 0.30659,-0.35344 0.41444,-0.53951 0.10785,-0.18606 0.19017,-0.35352 0.19017,-0.55604 0,-0.4766 -0.17991,-0.95443 -0.44958,-1.34513 -0.26968,-0.3907 -0.63109,-0.70553 -1.05834,-0.79427 -0.33771,-0.0701 -0.5872,-0.13296 -0.75757,-0.20722 -0.17038,-0.0743 -0.25896,-0.14678 -0.33383,-0.26975 -0.14976,-0.24595 -0.21554,-0.78659 -0.2558,-1.8309 l -0.0672,-1.74511 1.13533,-0.10904 c 0.79098,-0.076 1.36724,-0.23644 1.76268,-0.58549 0.39545,-0.34906 0.55346,-0.86758 0.55346,-1.51051 0,-0.62859 -0.24671,-1.1688 -0.69247,-1.526 -0.44575,-0.3572 -1.06834,-0.53382 -1.81436,-0.53382 -0.55766,0 -0.84015,-0.0437 -0.88211,-0.0692 -0.021,-0.0128 -0.0169,-5.3e-4 -0.031,-0.0584 -0.0141,-0.0578 -0.0221,-0.17608 -0.0227,-0.34313 -0.005,-1.18055 -0.14931,-2.0663 -0.49506,-2.69389 -0.34574,-0.62759 -0.93119,-0.969 -1.64951,-0.97927 z" />
    <path
       id="path861"
       style="fill:#1187ea;stroke-width:0.264583"
       d="m 174.23137,190.96228 c -1.22617,0.16087 -2.42034,0.65443 -3.40186,1.46348 -3.47092,2.86103 -2.65995,8.71456 1.45676,10.62054 1.2465,0.57711 2.78414,0.66062 4.14445,0.40876 1.36031,-0.25187 2.60067,-0.81425 3.08508,-1.87741 0.13776,-0.30234 0.2278,-0.64449 0.15761,-0.99012 -0.0702,-0.34563 -0.24983,-0.62721 -0.50126,-0.9803 -0.38276,-0.53755 -0.83703,-0.93242 -1.38079,-1.11363 -0.54376,-0.18121 -1.13875,-0.12813 -1.72858,0.0961 -0.88339,0.33587 -1.55443,0.29769 -1.9637,0.0729 -0.40928,-0.22483 -0.66456,-0.64132 -0.66456,-1.41594 0,-0.71212 0.16274,-1.08703 0.39016,-1.28003 0.22741,-0.19299 0.63323,-0.29718 1.34668,-0.1881 1.33213,0.20367 2.09521,0.31294 2.73162,0.20464 0.31821,-0.0541 0.61024,-0.18586 0.83406,-0.38085 0.22381,-0.195 0.37734,-0.42762 0.52813,-0.6842 0.38573,-0.65633 0.53723,-1.35613 0.2589,-1.97146 -0.27834,-0.61532 -0.867,-1.03645 -1.68827,-1.43402 -1.11581,-0.54015 -2.37829,-0.71122 -3.60443,-0.55035 z" />
    <path
       style="fill:#1187f5;fill-opacity:1;stroke-width:0.264583"
       d="m 181.78765,202.65193 c -0.35843,-0.35843 -0.41578,-1.45078 -0.41578,-7.92027 0,-4.34329 0.11103,-7.79652 0.26356,-8.19773 0.24031,-0.63204 0.37444,-0.6861 1.51999,-0.61253 1.15721,0.0743 1.26974,0.14336 1.42493,0.87443 0.0927,0.43657 0.18258,2.43086 0.1998,4.43177 0.02,2.32859 0.13062,3.63802 0.30722,3.63802 0.15176,0 0.8421,-0.52959 1.53408,-1.17686 0.692,-0.64727 1.58863,-1.30251 1.99254,-1.45607 0.64842,-0.24653 0.82497,-0.1886 1.50862,0.49505 0.42585,0.42584 0.77426,1.00381 0.77426,1.28437 0,0.28056 -0.59531,1.05849 -1.32291,1.72872 -0.72761,0.67024 -1.32292,1.31971 -1.32292,1.44328 0,0.12356 0.83215,1.03512 1.84922,2.02569 1.04503,1.01781 1.77406,1.93187 1.6764,2.10187 -0.68099,1.18549 -1.25408,1.75604 -1.76386,1.75604 -0.32504,0 -1.51818,-0.76114 -2.69396,-1.71857 -1.16078,-0.94521 -2.19981,-1.71911 -2.30895,-1.71979 -0.10914,-7.9e-4 -0.19843,0.58558 -0.19843,1.30279 0,1.55819 -0.46498,2.13557 -1.7198,2.13557 -0.48853,0 -1.07534,-0.1871 -1.30401,-0.41578 z"
       id="path863" />
    <path
       id="path865"
       style="fill:#1187f5;fill-opacity:1;stroke-width:0.264583"
       d="m 183.08096,185.60498 c -0.47464,0 -0.81506,0.0132 -1.14205,0.14366 -0.32699,0.13046 -0.57885,0.45331 -0.67231,0.74776 -0.0533,0.1678 -0.0496,0.24697 -0.0631,0.40463 -0.0134,0.15766 -0.0248,0.35572 -0.0357,0.59324 -0.0216,0.47505 -0.0396,1.10637 -0.0538,1.84382 -0.0284,1.4749 -0.0426,3.37285 -0.0424,5.26066 1.8e-4,1.88781 0.0147,3.76436 0.0434,5.19606 0.0143,0.71586 0.0324,1.32004 0.0543,1.76372 0.0109,0.22184 0.0222,0.40232 0.0362,0.54467 0.007,0.0712 0.0143,0.13209 0.0248,0.19224 0.0104,0.0602 -0.0175,0.0854 0.092,0.26251 0.13148,0.21274 0.27905,0.316 0.4501,0.4315 0.17105,0.1155 0.36244,0.2177 0.56637,0.29352 0.70707,0.2629 1.45163,0.21626 1.96991,-0.22789 0.51827,-0.44415 0.77241,-1.14578 0.89607,-2.04484 0.0365,-0.26521 0.093,-0.47483 0.14624,-0.66094 0.0532,0.0344 0.087,0.0528 0.1478,0.0941 0.32862,0.22308 0.75796,0.53855 1.19579,0.8847 1.3816,1.0923 2.18681,1.7076 2.96623,1.91512 0.3897,0.10377 0.81053,0.0621 1.13791,-0.1266 0.32738,-0.18874 0.55713,-0.46807 0.79013,-0.7953 l 0.56172,-0.78859 a 0.52922071,0.52922071 0 0 0 -0.0455,-0.66921 l -1.73426,-1.84691 c -0.46857,-0.4989 -0.8954,-0.98859 -1.19786,-1.36529 -0.14561,-0.18135 -0.25829,-0.33315 -0.3328,-0.44287 0.0464,-0.0734 0.10144,-0.15766 0.18397,-0.26769 0.20055,-0.26733 0.48882,-0.61017 0.80409,-0.94722 0.33872,-0.36212 0.64498,-0.72331 0.8754,-1.0263 0.1152,-0.15149 0.21133,-0.28711 0.28732,-0.41237 0.038,-0.0626 0.0712,-0.12205 0.10128,-0.19017 0.0301,-0.0681 0.0692,-0.13207 0.0692,-0.29869 0,-0.43717 -0.18134,-0.81728 -0.41961,-1.17203 -0.23827,-0.35474 -0.54251,-0.6751 -0.92449,-0.87953 -0.42735,-0.22871 -0.99868,-0.24489 -1.53118,0.005 -0.5325,0.24954 -1.11456,0.69772 -1.98024,1.42575 -0.31965,0.26882 -0.64271,0.51483 -0.89245,0.68575 -0.002,10e-4 -0.003,0.002 -0.005,0.003 -0.0536,-0.23934 -0.10925,-0.53763 -0.15555,-0.95653 -0.10816,-0.97859 -0.17673,-2.35899 -0.17673,-3.88503 0,-1.51876 0.0406,-2.30222 -0.25477,-2.93833 -0.14768,-0.31805 -0.45913,-0.5698 -0.76997,-0.66042 -0.31084,-0.0906 -0.61084,-0.0884 -0.97049,-0.0884 z" />
    <path
       id="path859"
       style="fill:#1187ea;stroke-width:0.264583"
       d="m 161.40115,190.77418 c -1.03787,-0.002 -2.07564,0.19889 -2.92179,0.64234 -0.67221,0.35228 -1.36089,0.91595 -1.95492,1.53427 -0.59402,0.61831 -1.08887,1.27257 -1.32964,1.90583 -0.26016,0.68429 -0.31084,1.60335 -0.25941,2.5523 0.0514,0.94894 0.21147,1.89515 0.52917,2.59467 0.64762,1.42601 2.27499,2.90079 3.79563,3.47679 1.19518,0.45272 2.61568,0.36336 3.94653,-0.0791 1.33085,-0.44242 2.58394,-1.24606 3.41943,-2.34146 2.33858,-3.06608 1.19145,-7.80674 -2.29857,-9.63507 -0.84931,-0.44493 -1.88845,-0.64907 -2.92643,-0.6506 z m 0.0537,4.65604 c 0.86581,0.0379 1.64383,0.56129 1.64383,1.81643 0,0.45054 -0.0734,0.7452 -0.20929,0.97565 -0.13587,0.23045 -0.34978,0.42698 -0.73278,0.63097 -0.3994,0.21272 -0.72123,0.26652 -1.04541,0.20826 -0.32418,-0.0583 -0.67821,-0.2442 -1.07952,-0.61909 -0.36479,-0.34076 -0.50813,-0.52398 -0.55242,-0.63717 -0.0443,-0.11318 -0.0506,-0.26693 0.015,-0.67902 0.19907,-1.25035 1.09486,-1.73393 1.96061,-1.69603 z" />
  </g>
</svg>
